name Walk7.mot
datacolumns 19
datarows 10
range 1.50500000 1.55000000
endheader

                time	   L_ground_force_vx	   L_ground_force_vy	   L_ground_force_vz	   L_ground_force_px	   L_ground_force_py	   L_ground_force_pz	   R_ground_force_vx	   R_ground_force_vy	   R_ground_force_vz	   R_ground_force_px	   R_ground_force_py	   R_ground_force_pz	   L_ground_torque_x	   L_ground_torque_y	   L_ground_torque_z	   R_ground_torque_x	   R_ground_torque_y	   R_ground_torque_z	
          1.50500000	          0.01919072	          0.04279215	         -0.00509092	         -0.00014958	          0.00000000	         -0.00001417	        -21.20308132	        428.78746275	        -33.23262650	          0.47222571	          0.00000000	          0.08434787	          0.00000000	          0.00014216	          0.00000000	          0.00000000	          2.64311839	          0.00000000	
          1.51000000	          0.01169524	          0.02350657	         -0.00336606	         -0.00011520	          0.00000000	         -0.00001111	        -20.11285403	        422.97105991	        -31.94939206	          0.47555486	          0.00000000	          0.08428066	          0.00000000	          0.00010013	          0.00000000	          0.00000000	          2.39537970	          0.00000000	
          1.51500000	          0.00596358	          0.00928002	         -0.00199372	         -0.00008404	          0.00000000	         -0.00000826	        -18.90911788	        418.58804724	        -30.76746030	          0.47839486	          0.00000000	          0.08415720	          0.00000000	          0.00006526	          0.00000000	          0.00000000	          2.14305837	          0.00000000	
          1.52000000	          0.00181633	         -0.00057713	         -0.00095598	         -0.00005742	          0.00000000	         -0.00000579	        -17.58399557	        415.48528747	        -29.71119573	          0.48077036	          0.00000000	          0.08398866	          0.00000000	          0.00003774	          0.00000000	          0.00000000	          1.88180192	          0.00000000	
          1.52500000	         -0.00098687	         -0.00685269	         -0.00021490	         -0.00003580	          0.00000000	         -0.00000374	        -16.13573098	        413.49731447	        -28.79762687	          0.48271879	          0.00000000	          0.08378707	          0.00000000	          0.00001711	          0.00000000	          0.00000000	          1.60876973	          0.00000000	
          1.53000000	         -0.00270646	         -0.01033511	          0.00027734	         -0.00001911	          0.00000000	         -0.00000213	        -14.56747473	        412.46482036	        -28.03632326	          0.48429000	          0.00000000	          0.08356376	          0.00000000	          0.00000252	          0.00000000	          0.00000000	          1.32231094	          0.00000000	
          1.53500000	         -0.00359515	         -0.01175094	          0.00057107	         -0.00000689	          0.00000000	         -0.00000093	        -12.88747718	        412.24918471	        -27.43193996	          0.48554111	          0.00000000	          0.08332833	          0.00000000	         -0.00000703	          0.00000000	          0.00000000	          1.02183814	          0.00000000	
          1.54000000	         -0.00388072	         -0.01172953	          0.00071427	          0.00000149	          0.00000000	         -0.00000009	        -11.10989344	        412.74372529	        -26.98490789	          0.48652996	          0.00000000	          0.08308939	          0.00000000	         -0.00001260	          0.00000000	          0.00000000	          0.70783097	          0.00000000	
          1.54500000	         -0.00375693	         -0.01078814	          0.00074961	          0.00000674	          0.00000000	          0.00000046	         -9.25226769	        413.87587141	        -26.68949555	          0.48731058	          0.00000000	          0.08285327	          0.00000000	         -0.00001518	          0.00000000	          0.00000000	          0.38145973	          0.00000000	
          1.55000000	         -0.00338042	         -0.00933123	          0.00071299	          0.00000958	          0.00000000	          0.00000077	         -7.33179130	        415.60119260	        -26.53193417	          0.48793238	          0.00000000	          0.08262309	          0.00000000	         -0.00001563	          0.00000000	          0.00000000	          0.04402053	          0.00000000	
